<svg width="22" height="20" viewBox="0 0 22 20" fill="none" xmlns="http://www.w3.org/2000/svg">
<path d="M8.33333 0C7.42188 0 6.66667 0.755208 6.66667 1.66667V3.33333H2.5C1.1263 3.33333 0 4.45963 0 5.83333V17.5C0 18.8737 1.1263 20 2.5 20H19.1667C20.5404 20 21.6667 18.8737 21.6667 17.5V5.83333C21.6667 4.45963 20.5404 3.33333 19.1667 3.33333H15V1.66667C15 0.755208 14.2448 0 13.3333 0H8.33333ZM8.33333 1.66667H13.3333V3.33333H8.33333V1.66667ZM2.5 5H19.1667C19.6354 5 20 5.36458 20 5.83333V17.5C20 17.9688 19.6354 18.3333 19.1667 18.3333H2.5C2.03125 18.3333 1.66667 17.9688 1.66667 17.5V5.83333C1.66667 5.36458 2.03125 5 2.5 5ZM10 6.66667V10H6.66667V11.6667H10V15H11.6667V11.6667H15V10H11.6667V6.66667H10Z" fill="#8B90A0"/>
</svg>
